<?xml version="1.0" encoding="us-ascii" standalone="no"?><svg xmlns="http://www.w3.org/2000/svg" xmlns:xlink="http://www.w3.org/1999/xlink" contentStyleType="text/css" height="984px" preserveAspectRatio="none" style="width:1042px;height:984px;background:#FFFFFF;" version="1.1" viewBox="0 0 1042 984" width="1042px" zoomAndPan="magnify"><defs/><g><text fill="#000000" font-family="sans-serif" font-size="14" font-weight="bold" lengthAdjust="spacing" textLength="352" x="341" y="29.5332">Comprehensive Search Feature - Note-Taking App</text><rect fill="#FFFFFF" height="695.0859" style="stroke:#181818;stroke-width:1.0;" width="10" x="233.5" y="197.9219"/><rect fill="#FFFFFF" height="228.8125" style="stroke:#181818;stroke-width:1.0;" width="10" x="503.5" y="280.9766"/><rect fill="#FFFFFF" height="30.3516" style="stroke:#181818;stroke-width:1.0;" width="10" x="722.5" y="372.0313"/><rect fill="#FFFFFF" height="30.3516" style="stroke:#181818;stroke-width:1.0;" width="10" x="923" y="449.0859"/><line style="stroke:#181818;stroke-width:0.5;stroke-dasharray:5.0,5.0;" x1="22" x2="22" y1="121.2188" y2="902.0078"/><line style="stroke:#181818;stroke-width:0.5;stroke-dasharray:5.0,5.0;" x1="238.5" x2="238.5" y1="121.2188" y2="902.0078"/><line style="stroke:#181818;stroke-width:0.5;stroke-dasharray:5.0,5.0;" x1="508.5" x2="508.5" y1="121.2188" y2="902.0078"/><line style="stroke:#181818;stroke-width:0.5;stroke-dasharray:5.0,5.0;" x1="727" x2="727" y1="121.2188" y2="902.0078"/><line style="stroke:#181818;stroke-width:0.5;stroke-dasharray:5.0,5.0;" x1="928" x2="928" y1="121.2188" y2="902.0078"/><text fill="#000000" font-family="sans-serif" font-size="14" lengthAdjust="spacing" textLength="29" x="5" y="118.1426">User</text><ellipse cx="22.5" cy="52.1094" fill="#E2E2F0" rx="8" ry="8" style="stroke:#181818;stroke-width:0.5;"/><path d="M22.5,60.1094 L22.5,87.1094 M9.5,68.1094 L35.5,68.1094 M22.5,87.1094 L9.5,102.1094 M22.5,87.1094 L35.5,102.1094 " fill="none" style="stroke:#181818;stroke-width:0.5;"/><text fill="#000000" font-family="sans-serif" font-size="14" lengthAdjust="spacing" textLength="29" x="5" y="915.541">User</text><ellipse cx="22.5" cy="927.1172" fill="#E2E2F0" rx="8" ry="8" style="stroke:#181818;stroke-width:0.5;"/><path d="M22.5,935.1172 L22.5,962.1172 M9.5,943.1172 L35.5,943.1172 M22.5,962.1172 L9.5,977.1172 M22.5,962.1172 L35.5,977.1172 " fill="none" style="stroke:#181818;stroke-width:0.5;"/><rect fill="#E2E2F0" height="31.6094" rx="2.5" ry="2.5" style="stroke:#181818;stroke-width:0.5;" width="122" x="177.5" y="88.6094"/><text fill="#000000" font-family="sans-serif" font-size="14" lengthAdjust="spacing" textLength="108" x="184.5" y="110.1426">Frontend (Client)</text><rect fill="#E2E2F0" height="31.6094" rx="2.5" ry="2.5" style="stroke:#181818;stroke-width:0.5;" width="122" x="177.5" y="901.0078"/><text fill="#000000" font-family="sans-serif" font-size="14" lengthAdjust="spacing" textLength="108" x="184.5" y="922.541">Frontend (Client)</text><rect fill="#E2E2F0" height="31.6094" rx="2.5" ry="2.5" style="stroke:#181818;stroke-width:0.5;" width="204" x="406.5" y="88.6094"/><text fill="#000000" font-family="sans-serif" font-size="14" lengthAdjust="spacing" textLength="190" x="413.5" y="110.1426">Search API (/search endpoint)</text><rect fill="#E2E2F0" height="31.6094" rx="2.5" ry="2.5" style="stroke:#181818;stroke-width:0.5;" width="204" x="406.5" y="901.0078"/><text fill="#000000" font-family="sans-serif" font-size="14" lengthAdjust="spacing" textLength="190" x="413.5" y="922.541">Search API (/search endpoint)</text><rect fill="#E2E2F0" height="49.2188" rx="2.5" ry="2.5" style="stroke:#181818;stroke-width:0.5;" width="177" x="639" y="71"/><text fill="#000000" font-family="sans-serif" font-size="14" lengthAdjust="spacing" textLength="93" x="681" y="92.5332">Search Engine</text><text fill="#000000" font-family="sans-serif" font-size="14" lengthAdjust="spacing" textLength="163" x="646" y="110.1426">(Meilisearch / Typesense)</text><rect fill="#E2E2F0" height="49.2188" rx="2.5" ry="2.5" style="stroke:#181818;stroke-width:0.5;" width="177" x="639" y="901.0078"/><text fill="#000000" font-family="sans-serif" font-size="14" lengthAdjust="spacing" textLength="93" x="681" y="922.541">Search Engine</text><text fill="#000000" font-family="sans-serif" font-size="14" lengthAdjust="spacing" textLength="163" x="646" y="940.1504">(Meilisearch / Typesense)</text><rect fill="#E2E2F0" height="49.2188" rx="2.5" ry="2.5" style="stroke:#181818;stroke-width:0.5;" width="204" x="826" y="71"/><text fill="#000000" font-family="sans-serif" font-size="14" lengthAdjust="spacing" textLength="61" x="897.5" y="92.5332">Database</text><text fill="#000000" font-family="sans-serif" font-size="14" lengthAdjust="spacing" textLength="190" x="833" y="110.1426">(PostgreSQL via Drizzle ORM)</text><rect fill="#E2E2F0" height="49.2188" rx="2.5" ry="2.5" style="stroke:#181818;stroke-width:0.5;" width="204" x="826" y="901.0078"/><text fill="#000000" font-family="sans-serif" font-size="14" lengthAdjust="spacing" textLength="61" x="897.5" y="922.541">Database</text><text fill="#000000" font-family="sans-serif" font-size="14" lengthAdjust="spacing" textLength="190" x="833" y="940.1504">(PostgreSQL via Drizzle ORM)</text><rect fill="#FFFFFF" height="695.0859" style="stroke:#181818;stroke-width:1.0;" width="10" x="233.5" y="197.9219"/><rect fill="#FFFFFF" height="228.8125" style="stroke:#181818;stroke-width:1.0;" width="10" x="503.5" y="280.9766"/><rect fill="#FFFFFF" height="30.3516" style="stroke:#181818;stroke-width:1.0;" width="10" x="722.5" y="372.0313"/><rect fill="#FFFFFF" height="30.3516" style="stroke:#181818;stroke-width:1.0;" width="10" x="923" y="449.0859"/><rect fill="#EEEEEE" height="3" style="stroke:#EEEEEE;stroke-width:1.0;" width="1035" x="0" y="152.3945"/><line style="stroke:#000000;stroke-width:1.0;" x1="0" x2="1035" y1="152.3945" y2="152.3945"/><line style="stroke:#000000;stroke-width:1.0;" x1="0" x2="1035" y1="155.3945" y2="155.3945"/><rect fill="#EEEEEE" height="24.3516" style="stroke:#000000;stroke-width:2.0;" width="118" x="458.5" y="141.2188"/><text fill="#000000" font-family="sans-serif" font-size="13" font-weight="bold" lengthAdjust="spacing" textLength="100" x="464.5" y="158.7139">User Interaction</text><polygon fill="#181818" points="221.5,193.9219,231.5,197.9219,221.5,201.9219,225.5,197.9219" style="stroke:#181818;stroke-width:1.0;"/><line style="stroke:#181818;stroke-width:1.0;" x1="22.5" x2="227.5" y1="197.9219" y2="197.9219"/><text fill="#000000" font-family="sans-serif" font-size="13" lengthAdjust="spacing" textLength="150" x="29.5" y="193.0654">Types query in search bar</text><path d="M179,210.9219 L179,236.9219 L297,236.9219 L297,220.9219 L287,210.9219 L179,210.9219 " fill="#FEFFDD" style="stroke:#181818;stroke-width:0.5;"/><path d="M287,210.9219 L287,220.9219 L297,220.9219 L287,210.9219 " fill="#FEFFDD" style="stroke:#181818;stroke-width:0.5;"/><text fill="#000000" font-family="sans-serif" font-size="13" lengthAdjust="spacing" textLength="97" x="185" y="229.417">Debounced input</text><polygon fill="#181818" points="491.5,276.9766,501.5,280.9766,491.5,284.9766,495.5,280.9766" style="stroke:#181818;stroke-width:1.0;"/><line style="stroke:#181818;stroke-width:1.0;" x1="243.5" x2="497.5" y1="280.9766" y2="280.9766"/><text fill="#000000" font-family="sans-serif" font-size="13" lengthAdjust="spacing" textLength="155" x="250.5" y="259.7686">Debounced search request</text><text fill="#000000" font-family="sans-serif" font-size="13" lengthAdjust="spacing" textLength="115" x="250.5" y="276.1201">(GET /search?q=...)</text><rect fill="#EEEEEE" height="3" style="stroke:#EEEEEE;stroke-width:1.0;" width="1035" x="0" y="310.1523"/><line style="stroke:#000000;stroke-width:1.0;" x1="0" x2="1035" y1="310.1523" y2="310.1523"/><line style="stroke:#000000;stroke-width:1.0;" x1="0" x2="1035" y1="313.1523" y2="313.1523"/><rect fill="#EEEEEE" height="24.3516" style="stroke:#000000;stroke-width:2.0;" width="146" x="444.5" y="298.9766"/><text fill="#000000" font-family="sans-serif" font-size="13" font-weight="bold" lengthAdjust="spacing" textLength="128" x="450.5" y="316.4717">Backend Processing</text><polygon fill="#181818" points="710.5,368.0313,720.5,372.0313,710.5,376.0313,714.5,372.0313" style="stroke:#181818;stroke-width:1.0;"/><line style="stroke:#181818;stroke-width:1.0;" x1="513.5" x2="716.5" y1="372.0313" y2="372.0313"/><text fill="#000000" font-family="sans-serif" font-size="13" lengthAdjust="spacing" textLength="190" x="520.5" y="350.8232">Full-text, fuzzy, synonym search</text><text fill="#000000" font-family="sans-serif" font-size="13" lengthAdjust="spacing" textLength="114" x="520.5" y="367.1748">for relevant note IDs</text><polygon fill="#181818" points="524.5,398.3828,514.5,402.3828,524.5,406.3828,520.5,402.3828" style="stroke:#181818;stroke-width:1.0;"/><line style="stroke:#181818;stroke-width:1.0;stroke-dasharray:2.0,2.0;" x1="518.5" x2="726.5" y1="402.3828" y2="402.3828"/><text fill="#000000" font-family="sans-serif" font-size="13" lengthAdjust="spacing" textLength="144" x="530.5" y="397.5264">List of matching note IDs</text><polygon fill="#181818" points="911,445.0859,921,449.0859,911,453.0859,915,449.0859" style="stroke:#181818;stroke-width:1.0;"/><line style="stroke:#181818;stroke-width:1.0;" x1="513.5" x2="917" y1="449.0859" y2="449.0859"/><text fill="#000000" font-family="sans-serif" font-size="13" lengthAdjust="spacing" textLength="124" x="520.5" y="427.8779">Fetch full note details</text><text fill="#000000" font-family="sans-serif" font-size="13" lengthAdjust="spacing" textLength="151" x="520.5" y="444.2295">via Drizzle ORM using IDs</text><polygon fill="#181818" points="524.5,475.4375,514.5,479.4375,524.5,483.4375,520.5,479.4375" style="stroke:#181818;stroke-width:1.0;"/><line style="stroke:#181818;stroke-width:1.0;stroke-dasharray:2.0,2.0;" x1="518.5" x2="927" y1="479.4375" y2="479.4375"/><text fill="#000000" font-family="sans-serif" font-size="13" lengthAdjust="spacing" textLength="220" x="530.5" y="474.5811">Note objects (title, content, tags, etc.)</text><polygon fill="#181818" points="254.5,505.7891,244.5,509.7891,254.5,513.7891,250.5,509.7891" style="stroke:#181818;stroke-width:1.0;"/><line style="stroke:#181818;stroke-width:1.0;stroke-dasharray:2.0,2.0;" x1="248.5" x2="507.5" y1="509.7891" y2="509.7891"/><text fill="#000000" font-family="sans-serif" font-size="13" lengthAdjust="spacing" textLength="236" x="260.5" y="504.9326">Search results with highlighted keywords</text><polygon fill="#181818" points="33.5,536.1406,23.5,540.1406,33.5,544.1406,29.5,540.1406" style="stroke:#181818;stroke-width:1.0;"/><line style="stroke:#181818;stroke-width:1.0;stroke-dasharray:2.0,2.0;" x1="27.5" x2="232.5" y1="540.1406" y2="540.1406"/><text fill="#000000" font-family="sans-serif" font-size="13" lengthAdjust="spacing" textLength="187" x="39.5" y="535.2842">Display formatted search results</text><rect fill="#EEEEEE" height="3" style="stroke:#EEEEEE;stroke-width:1.0;" width="1035" x="0" y="569.3164"/><line style="stroke:#000000;stroke-width:1.0;" x1="0" x2="1035" y1="569.3164" y2="569.3164"/><line style="stroke:#000000;stroke-width:1.0;" x1="0" x2="1035" y1="572.3164" y2="572.3164"/><rect fill="#EEEEEE" height="24.3516" style="stroke:#000000;stroke-width:2.0;" width="153" x="441" y="558.1406"/><text fill="#000000" font-family="sans-serif" font-size="13" font-weight="bold" lengthAdjust="spacing" textLength="135" x="447" y="575.6357">Optional UX Features</text><polygon fill="#181818" points="221.5,610.8438,231.5,614.8438,221.5,618.8438,225.5,614.8438" style="stroke:#181818;stroke-width:1.0;"/><line style="stroke:#181818;stroke-width:1.0;" x1="22.5" x2="227.5" y1="614.8438" y2="614.8438"/><text fill="#000000" font-family="sans-serif" font-size="13" lengthAdjust="spacing" textLength="112" x="29.5" y="609.9873">Uses autocomplete</text><path d="M159,627.8438 L159,669.8438 L318,669.8438 L318,637.8438 L308,627.8438 L159,627.8438 " fill="#FEFFDD" style="stroke:#181818;stroke-width:0.5;"/><path d="M308,627.8438 L308,637.8438 L318,637.8438 L308,627.8438 " fill="#FEFFDD" style="stroke:#181818;stroke-width:0.5;"/><text fill="#000000" font-family="sans-serif" font-size="13" lengthAdjust="spacing" textLength="132" x="165" y="646.3389">Shows suggestions via</text><text fill="#000000" font-family="sans-serif" font-size="13" lengthAdjust="spacing" textLength="138" x="165" y="662.6904">pre-fetched terms or SE</text><polygon fill="#181818" points="221.5,693.8984,231.5,697.8984,221.5,701.8984,225.5,697.8984" style="stroke:#181818;stroke-width:1.0;"/><line style="stroke:#181818;stroke-width:1.0;" x1="22.5" x2="227.5" y1="697.8984" y2="697.8984"/><text fill="#000000" font-family="sans-serif" font-size="13" lengthAdjust="spacing" textLength="132" x="29.5" y="693.042">Views recent searches</text><path d="M159,710.8984 L159,736.8984 L318,736.8984 L318,720.8984 L308,710.8984 L159,710.8984 " fill="#FEFFDD" style="stroke:#181818;stroke-width:0.5;"/><path d="M308,710.8984 L308,720.8984 L318,720.8984 L308,710.8984 " fill="#FEFFDD" style="stroke:#181818;stroke-width:0.5;"/><text fill="#000000" font-family="sans-serif" font-size="13" lengthAdjust="spacing" textLength="138" x="165" y="729.3936">Stored locally or via API</text><polygon fill="#181818" points="221.5,760.6016,231.5,764.6016,221.5,768.6016,225.5,764.6016" style="stroke:#181818;stroke-width:1.0;"/><line style="stroke:#181818;stroke-width:1.0;" x1="22.5" x2="227.5" y1="764.6016" y2="764.6016"/><text fill="#000000" font-family="sans-serif" font-size="13" lengthAdjust="spacing" textLength="100" x="29.5" y="759.7451">Applies tag filters</text><path d="M150,777.6016 L150,803.6016 L327,803.6016 L327,787.6016 L317,777.6016 L150,777.6016 " fill="#FEFFDD" style="stroke:#181818;stroke-width:0.5;"/><path d="M317,777.6016 L317,787.6016 L327,787.6016 L317,777.6016 " fill="#FEFFDD" style="stroke:#181818;stroke-width:0.5;"/><text fill="#000000" font-family="sans-serif" font-size="13" lengthAdjust="spacing" textLength="156" x="156" y="796.0967">Included in /search params</text><polygon fill="#181818" points="221.5,827.3047,231.5,831.3047,221.5,835.3047,225.5,831.3047" style="stroke:#181818;stroke-width:1.0;"/><line style="stroke:#181818;stroke-width:1.0;" x1="22.5" x2="227.5" y1="831.3047" y2="831.3047"/><text fill="#000000" font-family="sans-serif" font-size="13" lengthAdjust="spacing" textLength="148" x="29.5" y="826.4482">Uses keyboard navigation</text><path d="M151,844.3047 L151,886.3047 L325,886.3047 L325,854.3047 L315,844.3047 L151,844.3047 " fill="#FEFFDD" style="stroke:#181818;stroke-width:0.5;"/><path d="M315,844.3047 L315,854.3047 L325,854.3047 L315,844.3047 " fill="#FEFFDD" style="stroke:#181818;stroke-width:0.5;"/><text fill="#000000" font-family="sans-serif" font-size="13" lengthAdjust="spacing" textLength="153" x="157" y="862.7998">Up/Down/Enter to navigate</text><text fill="#000000" font-family="sans-serif" font-size="13" lengthAdjust="spacing" textLength="82" x="157" y="879.1514">search results</text><!--SRC=[RLHDSzem4BtxL-paH6OWt3j3EqqC7MRorP9qUk0YvCLM8oH7kuQQNz-Li1CWEVXWI-_js_TspOOjmetVr04hT6Is20jKGLSmGyLDG1Z1lMSSFQaNuqhuNjTPfZJx0C-48Sjg5TXeKol7S34BtZ6w0WOtrg3ZomjG1BFfwQskmFV7EGp6T7WHKErDZv2ZJo5JLng7IpUuGsDD1nt3KriZYNeye1TdzNB5QgKeuXuzSHbmyVCMjaP17in-BmOy_BexGFFhB9jCKcimbrQ2j6gyWyaaozB7qLTf1xuSIi9hWw45uw2Jib8XccEsYZ6sxSGvy5l19L2EAzyuZOL0weOp-IXyqOVZiuuheB0JY-WVqoVeVFhsEhcwkhfC8g-LVebUFmQlaIYc4sM-rOycHcufiOZLPusr8yP_F8Hriz-tGw3MUTTkkefBjvPK0rhSHjkIzdbExuJYgn2DtYJV6cBmQzWerbKi_mOfy1ZKgyYlemgKooB0siFr0baPIqjtbWSqgQCJ0PAESBmBk4_shlwYPe81nraUWauZA4soAca8KaxyEX8K8qw2-YWNlT_KME7P6QwWCcLbvM79umNRdG_5ILVHsnIVaAIva00DrLQr82QA8NmSP29EcJtKSPoKXUS__OBHn-6I5mBLiDUoc1OPpmTfKVaT0JLbAHCYX1IdUUbaYKVhwAyKbzdT44YWCO0Jzjy61HnGYqkTHgGF5MJ3XSLwhQnj8q_C9xLzGYR_0zbqYcR3sbYf-e5gxhHjYZJq_HY3xAVQq6TjYzihhq81JcrDgM9tvuJFzJZtEpUUnWK5zlrLMV0po_y3]--></g></svg>